<?xml version="1.0" encoding="utf-8"?>
<!-- Generator: Adobe Illustrator 25.0.1, SVG Export Plug-In . SVG Version: 6.00 Build 0)  -->
<svg version="1.0" id="katman_1" xmlns="http://www.w3.org/2000/svg" xmlns:xlink="http://www.w3.org/1999/xlink" x="0px" y="0px"
	 viewBox="0 0 560 400" style="enable-background:new 0 0 560 400;" xml:space="preserve">
<style type="text/css">
	.st0{fill:#232D4B;}
	.st1{fill:#0D3B70;}
	.st2{fill:#F84C1E;}
	.st3{fill:#FF6A14;}
</style>
<g transform="matrix(1.26581 0 0 1.26581 153.35 100)">
	<path class="st0" d="M16.4-27c0,0.1,0.3,0.3,0.7,0.6c0.4,0.2,1.2,0.7,1.7,1.1c0.5,0.4,1.5,1.2,2.2,1.8c0.7,0.6,1.7,1.7,2.4,2.4
		c0.6,0.7,1.5,1.7,1.8,2.2c0.4,0.5,1.1,1.5,1.6,2.2c0.6,0.8,4,7.6,9.5,18.6c4.8,9.5,10.9,21.8,13.6,27.2
		c2.7,5.5,13.5,26.9,23.9,47.7c10.4,20.8,20.5,40.9,22.4,44.8c2.6,5.1,3.6,7,3.8,7c0.2,0,3.5-6.5,12.5-24.5
		c6.7-13.4,16.9-33.7,22.5-45c5.7-11.3,16.3-32.6,23.7-47.3c7.4-14.7,13.8-27.4,14.2-28.1c0.5-0.7,1.3-1.9,1.9-2.7
		c0.6-0.7,1.9-2.2,2.9-3.3c1-1.1,2.5-2.4,3.2-2.9c0.7-0.5,1.6-1.1,2-1.3c0.4-0.2,0.8-0.5,0.8-0.6c0.1-0.1-0.3-0.2-1.6-0.2
		c-1.5,0-1.7,0-1.7,0.3c0,0.2-0.2,0.3-1,0.3c-0.5,0-1.5,0.2-2.1,0.4c-0.7,0.1-2.1,0.6-3.1,0.9c-1,0.4-2,0.7-2.2,0.8
		c-0.1,0.1-0.8,0.4-1.4,0.7s-1.3,0.6-1.5,0.8c-0.2,0.1-0.8,0.5-1.4,0.9c-0.6,0.4-1.5,1.1-1.9,1.5c-0.5,0.5-1.1,1.1-1.3,1.5
		c-0.2,0.3-0.4,0.7-0.4,0.8c0,0.1-3,6.3-6.8,13.7c-3.7,7.4-13.9,27.7-22.6,45.1c-8.7,17.4-20,40-25.2,50.3
		c-5.1,10.3-9.4,18.7-9.5,18.7c-0.1,0-1.6-2.8-3.3-6.4c-1.8-3.5-11.5-23-21.6-43.2C64.9,39.7,54.7,19.2,52.3,14.4
		c-2.4-4.8-7-13.9-10.2-20.3c-3.2-6.4-6-12-6.1-12.4c-0.2-0.4-0.8-1.2-1.4-1.9c-0.6-0.6-1.6-1.5-2.3-1.9c-0.6-0.4-1.6-1-2.2-1.3
		c-0.6-0.3-1.5-0.7-2-0.9c-0.5-0.2-1.2-0.5-1.5-0.6c-0.3-0.1-0.8-0.3-0.9-0.3c-0.1-0.1-0.7-0.3-1.3-0.4c-0.6-0.2-1.5-0.4-2.1-0.5
		s-1.4-0.3-1.8-0.3c-0.4-0.1-0.8-0.1-0.8-0.2c0-0.1-0.2-0.1-0.4-0.1c-0.3,0-0.3,0,0-0.1c0.2-0.1-0.3-0.1-1.3-0.1
		C16.8-27.2,16.4-27.1,16.4-27z"/>
	<path class="st1" d="M19.3-27c-0.3,0.1-0.3,0.1,0,0.1c0.2,0,0.3,0.1,0.4,0.1c0,0.1,0.4,0.1,0.8,0.2s1.2,0.2,1.8,0.3
		s1.5,0.3,2.1,0.5c0.5,0.2,1.1,0.4,1.3,0.4c0.2,0.1,0.6,0.2,0.9,0.3c0.3,0.1,1,0.4,1.5,0.6c0.5,0.2,1.4,0.6,2,0.9
		c0.6,0.3,1.6,0.9,2.2,1.3c0.6,0.4,1.6,1.3,2.2,1.9s1.2,1.4,1.3,1.6l0.2,0.5c22.5,0,29-0.1,29-0.1c0-0.1,0.4-0.4,1-0.8
		c0.5-0.4,1-0.8,1.2-0.9c0.1-0.1,1.8-1.5,3.8-3.1c2-1.6,3.7-3,3.9-3.1s0.4-0.1,0.5-0.1c0.1,0,0.2-0.1,0.3-0.2
		c0.1-0.2,0.1-0.4,0.1-0.5c0-0.2-3.2-0.2-28.1-0.2C32.2-27.1,19.4-27.1,19.3-27z"/>
	<path class="st0" d="M124.2-26.7c0.1,0.3,0.4,0.8,0.6,1.2c0.2,0.4,0.5,1.3,0.7,2c0.2,0.7,0.5,1.8,0.7,2.6c0.2,1,0.3,2,0.3,3.5
		c0,1.5-0.1,2.5-0.3,3.5c-0.2,0.8-0.5,2.1-0.8,2.9c-0.3,1-4,8.6-12.7,25.9c-6.8,13.5-12.3,24.6-12.4,24.6c-0.1,0.1-0.2,0.1-0.3,0.1
		c-0.1,0-0.8-1.3-1.5-2.8c-0.8-1.5-6.3-12.6-12.3-24.6C80,0.1,75-10,74.8-10.7c-0.2-0.7-0.5-1.8-0.7-2.5c-0.2-0.9-0.3-2-0.4-3.4
		c-0.1-1.3,0-2.6,0.1-3.3c0.1-0.7,0.3-1.8,0.5-2.6c0.2-0.7,0.5-1.8,0.8-2.4c0.2-0.6,0.5-1.1,0.5-1.2c0-0.1-0.1-0.1-0.3-0.1
		c-0.2,0-0.3,0-0.4,0c0,0-1.8,1.4-3.8,3c-2.1,1.6-3.8,3.1-4,3.2c-0.1,0.1-0.6,0.5-1.1,0.9c-0.5,0.4-1,0.8-1,1
		c-0.1,0.1-0.1,0.9-0.1,1.7c0,0.8,0.1,2.1,0.2,2.8c0.1,0.7,0.3,1.7,0.4,2.1c0.1,0.4,0.4,1.7,0.8,2.8c0.3,1.1,0.9,2.6,1.3,3.4
		c0.3,0.8,2.9,5.9,5.7,11.5S83,25.6,88.8,37.3c5.8,11.6,10.7,21.3,10.8,21.5s0.3,0.4,0.4,0.4c0.1,0,0.2-0.2,0.4-0.5
		c0.1-0.3,7.4-14.7,16.2-32.2C125.4,9,132.8-6,133.1-6.8c0.3-0.9,0.8-2.1,1-2.8c0.2-0.7,0.5-1.9,0.6-2.7c0.1-0.8,0.3-2.1,0.4-3.1
		c0.1-0.9,0-2,0-2.4c-0.1-0.7-0.2-0.8-0.5-1c-0.2-0.1-0.7-0.5-1.1-0.8c-0.3-0.3-0.8-0.7-1-0.8c-0.2-0.1-0.4-0.3-0.5-0.4
		c-0.1-0.1-0.5-0.5-0.9-0.8c-0.4-0.3-0.9-0.7-1-0.8c-0.2-0.2-0.6-0.6-1.1-0.9c-0.4-0.3-0.8-0.6-0.8-0.7c0-0.1-0.2-0.3-0.5-0.5
		c-0.3-0.2-0.8-0.5-1.1-0.8c-0.3-0.3-0.9-0.7-1.2-1c-0.3-0.2-0.7-0.4-0.7-0.4c-0.1,0-0.1-0.1-0.2-0.3c0-0.2-0.1-0.3-0.2-0.3
		C124.1-27.2,124.1-27,124.2-26.7L124.2-26.7z"/>
	<path class="st1" d="M124.3-27c0,0.1,0,0.2,0.1,0.3c0.1,0.1,0.2,0.2,0.3,0.2c0.1,0,0.5,0.3,0.8,0.5c0.3,0.3,0.8,0.6,1,0.8
		c0.2,0.2,0.6,0.5,1,0.7c0.3,0.2,0.6,0.4,0.6,0.5c0,0.1,0.4,0.4,0.8,0.7c0.5,0.3,0.9,0.7,1.1,0.9c0.1,0.2,0.6,0.6,1,0.8
		c0.4,0.3,0.8,0.6,0.9,0.7c0.1,0.1,0.4,0.4,0.7,0.5c0.3,0.2,0.7,0.5,0.9,0.8c0.2,0.2,0.6,0.6,0.9,0.7c0.3,0.1,0.5,0.3,0.6,0.5
		c0.1,0.2,1.8,0.2,14.5,0.2c11.5,0,14.5,0,14.5-0.2c0-0.1,0.2-0.5,0.4-0.8c0.2-0.3,0.8-1,1.3-1.5c0.5-0.5,1.4-1.2,1.9-1.5
		c0.6-0.4,1.2-0.8,1.4-0.9c0.2-0.1,0.9-0.5,1.5-0.8c0.6-0.3,1.3-0.6,1.4-0.7c0.2-0.1,1.1-0.4,2.2-0.8c1-0.3,2.5-0.8,3.2-0.9
		c0.7-0.2,1.7-0.3,2.1-0.4c0.7-0.1,0.9-0.1,0.9-0.3c0-0.2-1.4-0.2-28-0.2C130-27.2,124.3-27.1,124.3-27L124.3-27z"/>
	<path class="st2" d="M36.1-18.1c0,0,0.3,0.8,0.8,1.8c0.5,0.9,6.3,12.5,12.9,25.8c6.6,13.2,18.3,36.6,26,51.9s16.2,32.3,19,37.9
		c2.8,5.6,5.2,10.2,5.3,10.2c0.1,0,0.3-0.3,0.6-0.8c0.3-0.7,0.4-0.8,0.1-0.4c-0.2,0.2-0.3,0.4-0.4,0.4c0,0-0.1-5.4,0-12.1l0-12.1
		c1.8-3.6,8.9-17.7,16.8-33.6c8-15.9,17.8-35.5,21.8-43.6s7.6-15.1,8-15.6s1.3-1.6,2.1-2.5c0.8-0.8,2.1-2,2.8-2.5
		c0.7-0.6,1.7-1.2,2.1-1.5c0.4-0.3,1.2-0.7,1.8-1c0.6-0.3,1.5-0.7,1.9-0.9c0.4-0.2,0.9-0.4,1-0.4c0.1,0,0.4-0.1,0.6-0.2
		c0.2-0.1,0.7-0.3,1.1-0.4c0.4-0.1,1.1-0.2,1.5-0.2c0.4,0-0.1-0.1-1.2-0.1c-1.1-0.1-7.3-0.1-13.8-0.1l-11.8,0
		c-0.1,3.6-0.2,4.7-0.4,5.7c-0.2,0.8-0.5,2.1-0.7,2.8c-0.2,0.7-0.6,2-1,2.8C132.8-6,125.2,9.2,116.4,27
		c-8.9,17.7-16.2,32.3-16.2,32.3c0,0-0.2-0.1-0.3-0.3c-0.1-0.2-0.3-0.3-0.3-0.3c0,0.1,0.1,0.2,0.1,0.4c0.1,0.2,0.1,4.5,0.1,12.1
		c0,6.5-0.1,11.9-0.1,12c-0.1,0.2-1.5-2.5-6-11.4c-3.2-6.4-9.8-19.7-14.8-29.5c-4.9-9.8-12.5-25.1-17-33.9C55.4-4.8,53.8-8,53.1-8.9
		c-0.5-0.6-1.5-1.7-2.2-2.4c-0.7-0.7-1.8-1.6-2.3-2.1c-0.6-0.4-1.5-1.1-2.1-1.5c-0.6-0.4-1.7-1-2.3-1.3c-0.6-0.3-1.2-0.6-1.3-0.6
		c-0.1,0-0.3-0.1-0.4-0.2c-0.1-0.1-0.4-0.2-0.5-0.2c-0.2,0-0.3-0.1-0.4-0.1c0-0.1-0.2-0.1-0.5-0.1s-0.5-0.1-0.7-0.2
		c-0.2-0.2-0.2-0.2-0.1-0.3c0.1,0-0.2-0.1-0.7-0.1c-0.5,0-1.5,0-2.2-0.1C36.7-18.2,36.1-18.2,36.1-18.1z"/>
	<path class="st3" d="M40.5-18c-0.3,0.2-0.3,0.2,0,0.3c0.1,0.1,0.4,0.2,0.6,0.2c0.2,0,0.4,0.1,0.4,0.1c0,0.1,0.2,0.1,0.4,0.1
		c0.2,0,0.4,0.1,0.5,0.2c0.1,0.1,0.3,0.2,0.4,0.2c0.1,0,0.7,0.3,1.3,0.6c0.6,0.3,1.7,0.9,2.3,1.3c0.6,0.4,1.6,1.1,2.1,1.5
		c0.5,0.4,1.6,1.4,2.3,2.1c0.7,0.7,1.7,1.8,2.2,2.4C53.8-8,55.4-4.8,62,8.3c4.4,8.9,12.1,24.2,17,33.9c4.9,9.8,11.5,23,14.8,29.5
		c4.4,8.9,5.9,11.6,6,11.4c0.1-0.1,0.1-5.6,0.1-12.1l0-11.8c-8.4-16.7-15.7-31.3-21.6-43.2C72.3,4.2,67.2-6,67-6.6
		c-0.3-0.6-0.7-1.7-0.9-2.5c-0.3-0.8-0.6-2.2-0.7-3c-0.2-0.8-0.3-2.4-0.4-3.6c-0.1-1.4-0.1-2.2-0.3-2.3c-0.1-0.1-2.7-0.2-12-0.2
		C43.6-18.2,40.7-18.2,40.5-18z"/>
	<path class="st2" d="M163.5-18.1c0.2,0.1,0.2,0.3,0.1,0.6l-0.1,0.5c0.4-0.8,0.5-1,0.5-1.1c0-0.1-0.2-0.1-0.4-0.1
		C163.3-18.2,163.3-18.2,163.5-18.1z"/>
	<path class="st3" d="M161.8-18c-0.5,0.1-1.2,0.2-1.5,0.3c-0.3,0.1-0.7,0.3-1,0.4c-0.2,0.1-0.5,0.2-0.6,0.2s-0.6,0.2-1,0.4
		c-0.4,0.2-1.3,0.6-1.9,0.9c-0.6,0.3-1.5,0.8-1.8,1c-0.4,0.2-1.3,0.9-2.1,1.5c-0.7,0.6-2,1.7-2.8,2.5c-0.8,0.8-1.8,1.9-2.1,2.5
		s-4,7.5-8,15.6S125.1,35,117.1,50.9c-8,15.9-15,30-15.6,31.3l-1.2,2.3c-0.1,18.7-0.1,24.2,0,24.2c0,0,0.2-0.2,0.4-0.5
		c0.2-0.3,4.1-8,8.7-17.2c4.6-9.2,14.5-29,22-44s17.8-35.7,22.9-45.8c5.1-10.2,9.2-18.6,9.2-18.8c0-0.3-0.1-0.3-0.5-0.3
		C162.9-18,162.3-18,161.8-18L161.8-18z"/>
	<path class="st1" d="M-34.2,83.3c0,0.1,0.7,0.8,1.6,1.7c0.9,0.8,1.7,1.5,1.9,1.6s0.5,0.2,0.7,0.5c0.3,0.2,1.3,1,2.3,1.8
		c1,0.8,2.6,2,3.7,2.8c1.1,0.8,2.5,1.8,3.2,2.4s2.1,1.5,3.2,2.3c1,0.7,3,2.1,4.3,3c1.3,0.9,4.2,2.7,6.4,4.1c2.2,1.4,4.3,2.7,4.8,3
		c0.5,0.3,1.7,1,2.8,1.7c1.1,0.6,3.2,1.9,4.7,2.8c1.5,0.9,3.7,2.1,4.9,2.8c1.2,0.7,3.5,1.9,5.2,2.8c1.6,0.9,5.5,2.9,8.7,4.5
		c3.1,1.6,7.3,3.6,9.1,4.5c1.9,0.9,4.8,2.2,6.6,3c1.8,0.8,4.7,2.1,6.5,2.8c1.8,0.8,4.8,2,6.6,2.8c1.8,0.7,4.9,1.9,6.8,2.7
		c1.9,0.7,4.3,1.6,5.3,2c1,0.4,2.3,0.8,2.8,1c0.5,0.2,1.4,0.5,1.9,0.7c0.5,0.2,3.2,1.1,5.8,2c2.7,0.9,6,2,7.4,2.4
		c1.4,0.4,3,0.9,3.7,1.1c0.7,0.2,1.4,0.4,1.6,0.4c0.2,0,0.5,0.2,0.6,0.3c0.1,0.2,0.1,0.2,0,0.3c-0.1,0-0.7,0.2-1.4,0.3
		c-0.7,0.1-2.1,0.5-3.1,0.7c-1,0.2-2.7,0.6-3.6,0.8c-0.9,0.2-1.9,0.3-2.1,0.3s-0.5,0.1-0.7,0.1c-0.1,0.1-0.6,0.2-0.9,0.2
		c-0.3,0.1-0.8,0.1-1,0.2c-0.2,0.1-1.2,0.3-2,0.4c-0.9,0.2-2.2,0.4-3,0.6c-0.7,0.1-2,0.4-2.9,0.6c-0.9,0.2-2.1,0.4-2.8,0.5
		c-0.7,0.1-2.1,0.3-3,0.5s-2.3,0.4-2.9,0.5c-0.6,0.1-1.6,0.3-2.1,0.3c-0.5,0.1-1.7,0.3-2.5,0.4c-0.9,0.1-2,0.3-2.5,0.3
		c-0.5,0.1-1.4,0.2-1.9,0.3c-0.6,0.1-1.3,0.2-1.7,0.2c-0.4,0-0.9,0.1-1.2,0.1c-0.3,0-1.2,0.2-2.1,0.3c-0.9,0.1-2.4,0.3-3.5,0.4
		s-2.6,0.3-3.3,0.3c-0.7,0.1-1.9,0.2-2.6,0.3c-1.3,0.1-1.4,0.2-1.8,0.7c-0.3,0.3-0.6,1-0.8,1.5c-0.2,0.7-0.4,1.4-0.5,2.2
		c-0.1,1.1-0.1,1.2,0.2,1.3c0.2,0.1,1,0,1.9-0.1c0.9-0.1,2.2-0.2,3-0.3c0.7-0.1,2.4-0.3,3.6-0.4c1.2-0.2,2.9-0.3,3.7-0.4
		c0.8-0.1,1.5-0.2,1.6-0.2c0.1,0,1.2-0.2,2.4-0.3c1.2-0.2,3.3-0.4,4.7-0.6c1.3-0.2,2.8-0.4,3.3-0.5c0.5-0.1,2.5-0.4,4.4-0.7
		c1.9-0.3,4.4-0.7,5.4-0.9c1.1-0.2,3.9-0.7,6.3-1.2c2.4-0.5,5.1-1,6-1.2c0.9-0.2,3-0.6,4.6-1c1.6-0.3,4-0.9,5.2-1.2
		c1.3-0.3,2.6-0.6,3-0.7c0.4-0.1,1.4-0.3,2.3-0.6c0.9-0.2,2.5-0.6,3.5-0.9c1-0.3,3.1-0.8,4.5-1.2c1.4-0.4,3.6-1,4.8-1.3
		c1.2-0.3,2.6-0.7,3-0.8c0.4-0.1,1.5-0.4,2.3-0.7c0.9-0.3,3.1-1,5-1.5c1.9-0.6,5.2-1.7,7.4-2.4c2.2-0.7,5-1.7,6.4-2.2
		c1.3-0.5,2.9-1,3.6-1.3c0.7-0.3,1.4-0.5,1.7-0.6c0.3-0.1,1.4-0.5,2.5-0.9c1.1-0.4,3.8-1.5,6.1-2.4c2.3-0.9,5.3-2.1,6.8-2.8
		c1.5-0.6,4.5-1.9,6.8-3c2.3-1,5.1-2.3,6.4-2.9c1.2-0.6,3.2-1.5,4.2-2c1.1-0.5,3.9-1.9,6.2-3c2.3-1.2,5.6-2.8,7.4-3.8
		c1.8-0.9,4.1-2.2,5.2-2.8c1.1-0.6,2.8-1.5,3.7-2c0.9-0.5,2.1-1.2,2.8-1.6c0.6-0.3,2.5-1.5,4.2-2.5c1.7-1,4.1-2.4,5.3-3.2
		c1.2-0.7,3.3-2,4.7-2.9c1.4-0.9,3.3-2.1,4.4-2.8c1-0.7,2.2-1.5,2.6-1.8c0.4-0.3,1.9-1.4,3.5-2.5c1.5-1.1,4.1-2.9,5.7-4.2
		c1.6-1.2,3.4-2.6,4.1-3.1c0.6-0.5,1.3-0.9,1.4-0.9c0.1,0,0.6-0.3,1-0.8c0.5-0.4,1.3-1.2,1.8-1.7c0.5-0.5,1-1,1-1
		c0-0.1-0.1-0.1-0.3-0.1s-2.5,1.5-5.2,3.2c-2.7,1.8-5.3,3.5-5.7,3.7c-0.5,0.3-1.4,0.9-2,1.3c-0.6,0.4-2.8,1.8-5,3.1
		c-2.1,1.3-5.5,3.3-7.6,4.5c-2.1,1.2-4.1,2.4-4.5,2.6c-0.4,0.3-2.5,1.4-4.5,2.5c-2.1,1.1-4.9,2.7-6.3,3.4c-1.4,0.8-4.6,2.4-7.1,3.6
		c-2.5,1.3-5.9,2.9-7.5,3.7c-1.6,0.8-4.1,1.9-5.4,2.5c-1.3,0.6-2.8,1.3-3.3,1.5c-0.5,0.2-2.1,1-3.6,1.6c-1.5,0.7-2.8,1.3-2.9,1.3
		c-0.1,0-0.5,0.2-0.9,0.3c-0.4,0.2-2.3,1-4.3,1.8c-2,0.8-3.6,1.5-3.7,1.5c-0.1,0-0.4,0.1-0.7,0.3c-0.3,0.1-1.1,0.5-1.7,0.7
		c-0.6,0.2-1.3,0.5-1.4,0.6c-0.2,0.1-0.7,0.3-1.2,0.5c-0.5,0.2-1.7,0.7-2.6,1c-0.9,0.4-2.3,0.9-3,1.1c-0.7,0.3-1.4,0.5-1.6,0.6
		c-0.2,0.1-1.6,0.6-3.1,1.2c-1.5,0.6-3.3,1.2-3.9,1.4c-0.6,0.2-2.3,0.8-3.8,1.3s-2.9,1-3.2,1.1c-0.3,0.1-1.1,0.3-1.8,0.6
		c-0.7,0.3-2.6,0.9-4.2,1.4c-1.6,0.5-3.8,1.2-5,1.6c-1.1,0.3-2.7,0.8-3.5,1.1c-0.8,0.2-2,0.6-2.7,0.8c-0.7,0.2-1.7,0.5-2.2,0.6
		c-0.5,0.1-1.2,0.3-1.6,0.4c-0.3,0.1-1.1,0.3-1.8,0.5c-0.6,0.2-1.9,0.5-2.8,0.8c-0.9,0.2-1.9,0.5-2.3,0.6c-0.6,0.2-0.8,0.2-1.4,0
		c-0.4-0.1-1.9-0.5-3.3-0.9c-1.4-0.4-3.1-0.8-3.7-1c-0.6-0.1-1.2-0.3-1.3-0.4c-0.1,0-0.7-0.2-1.3-0.4c-0.6-0.2-2.1-0.6-3.3-1
		c-1.2-0.3-3.1-0.9-4.2-1.3c-1.2-0.3-2.6-0.8-3.3-1c-0.6-0.2-1.6-0.5-2.3-0.7c-0.6-0.2-2.4-0.8-4-1.4c-1.6-0.5-3.2-1.1-3.7-1.2
		c-0.4-0.1-2.3-0.8-4.2-1.5c-1.9-0.7-4.5-1.6-5.9-2.1c-1.4-0.5-3.9-1.5-5.7-2.1c-1.7-0.7-3.3-1.3-3.5-1.4c-0.1-0.1-1.8-0.7-3.6-1.5
		c-1.8-0.7-4.4-1.8-5.8-2.4c-1.4-0.6-3.4-1.5-4.5-1.9s-3.5-1.5-5.2-2.3c-1.7-0.8-4.5-2.1-6.2-2.8c-1.7-0.8-5.2-2.5-7.9-3.8
		c-2.7-1.3-6-3-7.3-3.7c-1.3-0.7-3.8-2-5.4-2.9c-1.7-0.9-3.7-2-4.5-2.4c-0.8-0.4-3.2-1.8-5.3-3c-2.1-1.2-5.7-3.3-8-4.7
		c-2.3-1.4-4.7-2.9-5.5-3.3c-0.7-0.5-2-1.3-2.8-1.7c-0.8-0.5-3.6-2.3-6.2-4.1c-2.6-1.7-5-3.3-5.2-3.4c-0.2-0.1-0.5-0.2-0.6-0.2
		C-34.2,83.1-34.2,83.2-34.2,83.3L-34.2,83.3z"/>
	<path class="st0" d="M-30.7,87c1.7,1.7,4.2,4,5.6,5.3c1.4,1.2,3.4,3,4.4,3.8c1,0.9,2.3,1.9,2.9,2.4c0.6,0.5,1.7,1.4,2.6,2
		c0.8,0.6,1.7,1.3,2,1.6c0.3,0.2,1.2,0.9,2,1.5c0.8,0.6,2.2,1.7,3.2,2.4c0.9,0.7,2.4,1.8,3.3,2.4c0.9,0.7,2.7,1.9,4,2.7
		c1.3,0.9,3.1,2.1,4.1,2.7c1,0.6,3.6,2.3,5.9,3.7c2.3,1.4,5.3,3.2,6.6,4c1.3,0.8,3.7,2.1,5.3,3.1c1.6,0.9,4.2,2.3,5.7,3.1
		c1.5,0.8,4.3,2.2,6.1,3.1c1.8,0.9,5,2.4,7.1,3.4c2.1,1,4.6,2.1,5.6,2.5c0.9,0.4,2.7,1.1,4,1.6c1.2,0.5,2.7,1.1,3.2,1.2
		c0.5,0.2,2.9,1,5.3,1.9c2.4,0.9,5.6,2,7,2.5c1.4,0.5,4.9,1.7,7.8,2.6c2.8,0.9,5.3,1.8,5.5,1.9c0.2,0.1,0.3,0.2,0.1,0.3
		c-0.1,0.1,0,0.1,0.2,0.1c0.2,0,1.2-0.2,2.1-0.3c0.9-0.2,2.6-0.6,3.6-0.8c1-0.2,2.4-0.6,3.1-0.7c0.7-0.2,1.3-0.3,1.4-0.3
		c0.1-0.1,0.1-0.1,0-0.3c-0.1-0.1-0.4-0.3-0.6-0.3c-0.2,0-1-0.2-1.6-0.4c-0.7-0.2-2.3-0.7-3.7-1.1c-1.4-0.4-4.7-1.5-7.4-2.4
		c-2.7-0.9-5.3-1.8-5.8-2c-0.5-0.2-1.4-0.5-1.9-0.7c-0.5-0.2-1.8-0.6-2.8-1c-1-0.4-3.4-1.2-5.3-2c-1.9-0.7-5-1.9-6.8-2.7
		c-1.8-0.7-4.8-2-6.6-2.8c-1.8-0.8-4.8-2-6.5-2.8c-1.7-0.8-4.7-2.1-6.6-3c-1.9-0.9-6-2.9-9.1-4.5c-3.2-1.6-7.1-3.6-8.7-4.5
		c-1.6-0.9-4-2.1-5.2-2.8c-1.2-0.7-3.4-1.9-4.9-2.8c-1.5-0.9-3.7-2.1-4.7-2.8c-1.1-0.6-2.4-1.4-2.8-1.7c-0.5-0.3-2.6-1.6-4.8-3
		c-2.2-1.4-5-3.2-6.4-4.1c-1.3-0.9-3.3-2.2-4.3-3c-1-0.7-2.5-1.8-3.2-2.3c-0.7-0.5-2-1.5-3-2.2c-0.9-0.7-2.6-2-3.7-2.8
		c-1.1-0.9-2.2-1.7-2.5-2c-0.2-0.2-0.5-0.4-0.6-0.4c-0.1,0-0.8-0.6-1.6-1.3C-33.1,84.5-32.4,85.3-30.7,87L-30.7,87z M232.2,85.4
		c-0.8,0.8-1.5,1.4-1.6,1.3s-0.6,0.3-1.1,0.8c-0.6,0.4-2.4,1.9-4.1,3.2c-1.7,1.3-4.4,3.2-5.9,4.3c-1.5,1.1-3.1,2.2-3.5,2.5
		c-0.4,0.3-1.6,1.1-2.6,1.8c-1,0.7-3,2-4.4,2.8c-1.4,0.9-3.5,2.2-4.7,2.9c-1.2,0.8-3.6,2.2-5.3,3.2c-1.7,1-3.9,2.3-4.8,2.8
		c-0.9,0.5-2.2,1.2-2.8,1.6c-0.6,0.3-2,1.1-3.1,1.7c-1.1,0.6-3.5,1.9-5.2,2.8c-1.7,0.9-5.1,2.6-7.4,3.8c-2.3,1.1-5.1,2.5-6.2,3
		c-1.1,0.5-3,1.4-4.2,2c-1.2,0.6-4.1,1.9-6.4,2.9c-2.3,1-5.3,2.3-6.8,3c-1.5,0.6-4.5,1.9-6.8,2.8c-2.3,0.9-5,2-6.1,2.4
		c-1.1,0.4-2.2,0.8-2.5,0.9c-0.3,0.1-1,0.4-1.7,0.6c-0.7,0.2-2.3,0.8-3.6,1.3c-1.3,0.5-4.2,1.5-6.4,2.2c-2.2,0.7-5.5,1.8-7.4,2.4
		c-1.9,0.6-4.1,1.3-5,1.5c-0.9,0.3-1.9,0.6-2.3,0.7c-0.4,0.1-1.8,0.5-3,0.8c-1.2,0.3-3.4,1-4.8,1.3c-1.5,0.4-3.5,0.9-4.5,1.2
		c-1,0.3-2.6,0.7-3.5,0.9c-0.9,0.2-1.9,0.5-2.3,0.6c-0.4,0.1-1.8,0.4-3,0.7c-1.3,0.3-3.6,0.8-5.2,1.2c-1.6,0.4-3.7,0.8-4.6,1
		c-0.9,0.2-3.6,0.7-6,1.2c-2.4,0.5-5.2,1-6.3,1.2s-3.5,0.6-5.4,0.9c-1.9,0.3-3.9,0.6-4.4,0.7c-0.5,0.1-2,0.3-3.3,0.5
		c-1.3,0.2-3.4,0.5-4.7,0.6c-1.2,0.2-2.3,0.3-2.4,0.3c-0.1,0-0.8,0.1-1.6,0.2c-0.8,0.1-2.5,0.3-3.7,0.4c-1.2,0.1-2.9,0.3-3.6,0.4
		c-0.7,0.1-2.1,0.2-3,0.3c-0.9,0.1-1.7,0.1-1.9,0.1c-0.3-0.1-0.3-0.2-0.2-1.3c0.1-0.8,0.2-1.6,0.5-2.2c0.2-0.6,0.6-1.2,0.8-1.5
		c0.4-0.5,0.5-0.5,1.5-0.6c0.6,0,1.2-0.1,1.5-0.2l0.5-0.1c-0.7-0.2-0.9-0.4-1.1-0.9c-0.2-0.4-0.6-1-0.8-1.4s-0.8-0.9-1.3-1.2
		c-0.6-0.4-0.8-0.6-1-0.5c-0.1,0.1-0.6,0.2-1,0.3c-0.4,0.1-0.9,0.3-1.1,0.5c-0.2,0.2-0.6,0.6-0.7,1c-0.2,0.3-0.4,0.8-0.4,1.1
		c-0.1,0.3-0.1,2.1-0.1,4.1c0,2.7-0.1,3.9-0.2,4.7c-0.1,0.6-0.4,1.5-0.5,2c-0.2,0.5-0.6,1.5-0.9,2.2c-0.4,0.7-0.9,1.7-1.3,2.3
		c-0.4,0.5-1.1,1.5-1.7,2.1c-0.6,0.6-1.6,1.4-2.3,1.9c-0.7,0.4-1.7,1-2.4,1.3c-0.7,0.3-1.7,0.6-2.3,0.8c-0.6,0.2-1.8,0.4-2.5,0.4
		c-0.8,0.1-2,0.1-2.6,0.1c-0.7,0-1.7-0.2-2.4-0.3c-0.7-0.1-1.8-0.4-2.5-0.7s-1.5-0.6-1.9-0.8c-0.3-0.2-0.6-0.4-0.5-0.5
		c0-0.1-0.1-0.2-0.3-0.2c-0.2-0.1-0.7-0.4-1.2-0.7c-0.5-0.4-1-0.8-1.2-0.9c-0.2-0.1-0.9-0.7-1.5-1.3c-0.6-0.6-1.1-1.1-1.1-1.3
		c0-0.2,0.2-0.3,1.1-0.3c0.6,0,1.8-0.1,2.6-0.2c0.9-0.1,2.2-0.1,3.1-0.1s3.2-0.1,5.4-0.2s5.3-0.3,6.9-0.4c1.7-0.1,3.5-0.2,4.1-0.3
		c0.8-0.1,1.1-0.1,1.2,0.1c0.1,0.1,0.2,0.1,0.2,0c0-0.1,0.1-0.2,0.1-0.2c0.1,0,0.4-0.5,0.7-1.2c0.3-0.6,0.7-1.7,0.8-2.4
		c0.2-0.7,0.3-1.5,0.4-1.9c0.1-0.6,0.1-0.7-0.1-0.8c-0.1-0.1-1.3,0-2.6,0.1c-1.3,0.1-5,0.4-8.2,0.6c-3.2,0.2-7.3,0.4-9,0.5
		c-1.8,0.1-4.7,0.1-6.4,0.1c-2.7,0-3.1,0-3.3-0.2c-0.1-0.2-0.2-0.6-0.3-1.8c0-1,0-1.7,0.1-1.7c0.1-0.1,0.1-0.2,0-0.3
		c-0.1-0.1-0.1-0.5,0-0.8c0.1-0.3,0.1-0.8,0.1-1.1c0-0.4-0.1-0.6-0.4-0.8c-0.2-0.2-0.6-0.3-0.8-0.3c-0.2,0-0.5,0.1-0.6,0.2
		c-0.1,0.1-0.5,0.7-0.8,1.4c-0.3,0.7-0.6,1.3-0.7,1.4c-0.1,0.1-0.4,0.2-0.6,0.3c-0.3,0.1-0.5,0.1-0.5,0.2c0,0.1-0.4,0.3-0.8,0.5
		c-0.5,0.2-1.2,0.8-2,1.6c-0.8,0.8-1.4,1.6-1.7,2.2c-0.3,0.5-0.7,1.4-0.9,2c-0.2,0.6-0.4,1.5-0.5,2.1c-0.1,0.6-0.1,1.2-0.2,1.3
		c0,0.1-0.1,0.3-0.2,0.3c-0.1,0,1.3,0,3.1,0c2.2,0,3.3,0,3.5,0.1c0.2,0.1,0.4,0.4,0.5,1.1c0.1,0.6,0.4,1.5,0.6,2.2
		c0.2,0.6,0.7,1.7,1.1,2.4c0.3,0.7,0.9,1.7,1.3,2.2s1.3,1.6,2,2.4c0.8,0.8,1.9,1.7,2.7,2.3c0.7,0.5,2,1.2,2.8,1.6
		c0.8,0.4,2.1,0.9,2.9,1.2c0.8,0.2,1.7,0.5,2.1,0.5c0.3,0.1,0.8,0.2,1,0.3c0.3,0.1,1.2,0.2,3.6,0.2c2.5,0,3.3,0,3.6-0.2
		c0.2-0.1,0.9-0.3,1.6-0.4c0.7-0.1,1.8-0.4,2.5-0.7c0.7-0.2,2-0.8,2.8-1.2c0.8-0.4,2-1,2.5-1.4c0.5-0.3,1.4-0.9,1.9-1.3
		c0.6-0.4,1.6-1.4,2.4-2.2c1-1,1.8-2,2.5-3c0.6-0.9,1.4-2.3,1.8-3.1c0.4-0.9,1-2.3,1.3-3.2c0.4-1.3,0.6-1.7,0.8-1.7
		c0.2,0,0.6-0.1,1.1-0.2c0.4-0.1,1.6-0.2,2.7-0.4c1-0.1,2.1-0.3,2.4-0.3c0.3,0,1.4-0.2,2.5-0.3c1.1-0.2,3.1-0.5,4.5-0.7
		c1.4-0.2,3.1-0.4,3.7-0.6c0.7-0.1,1.9-0.3,2.7-0.4c0.8-0.1,2.6-0.4,4-0.6c1.4-0.2,3.2-0.5,4.1-0.7c0.9-0.2,2.5-0.5,3.5-0.6
		c1-0.2,2.4-0.5,3-0.6c0.6-0.1,1.7-0.3,2.5-0.5c0.8-0.2,1.9-0.4,2.5-0.5c0.6-0.1,1.5-0.3,2-0.4c0.5-0.1,1.5-0.3,2.2-0.5
		c0.7-0.2,1.8-0.4,2.3-0.5c0.6-0.1,1.2-0.3,1.6-0.3c0.3-0.1,1.1-0.3,1.8-0.4c0.7-0.2,2-0.5,2.8-0.7c0.9-0.2,3.1-0.8,4.9-1.2
		c1.8-0.5,3.7-1,4.3-1.1l1-0.3c2.1,0.6,4.2,1.1,5.9,1.5c1.7,0.4,3.7,0.9,4.5,1.1c0.8,0.2,2.1,0.5,2.9,0.7c0.8,0.2,2.5,0.6,3.8,0.9
		c1.3,0.3,2.7,0.6,3.3,0.7c0.5,0.1,1.6,0.3,2.3,0.5c0.8,0.1,1.9,0.4,2.4,0.5c0.6,0.1,1.4,0.3,1.8,0.4c0.5,0.1,1.1,0.2,1.5,0.3
		s1.5,0.3,2.5,0.5c1,0.2,2.6,0.5,3.5,0.6c0.9,0.2,2.9,0.5,4.5,0.8c1.6,0.3,3.4,0.5,4,0.6c0.7,0.1,1.7,0.3,2.3,0.4
		c0.6,0.1,2.2,0.4,3.7,0.6s3.1,0.4,3.7,0.5c0.6,0.1,1.7,0.2,2.4,0.3c0.7,0.1,2.2,0.3,3.3,0.4c1.1,0.1,2.5,0.3,3,0.4
		c0.5,0.1,1,0.3,1.1,0.4c0.1,0.1,0.2,0.5,0.3,0.8c0.1,0.3,0.4,1.2,0.6,2c0.3,0.7,0.8,1.9,1.2,2.6c0.4,0.7,0.9,1.6,1.2,2.1
		c0.3,0.5,1,1.4,1.6,2.1c0.6,0.7,1.3,1.6,1.7,1.9c0.4,0.4,1.3,1.1,2.1,1.7c0.8,0.6,2,1.4,2.7,1.8c0.7,0.4,1.7,0.9,2.3,1.2
		c0.6,0.3,1.3,0.6,1.8,0.7c0.4,0.1,1.2,0.4,1.8,0.5c0.5,0.1,1.3,0.3,1.6,0.4c0.3,0.1,0.7,0.2,0.8,0.3c0.1,0.1,1.3,0.2,3.5,0.2
		c2.8,0,3.4,0,3.8-0.2c0.3-0.1,1-0.3,1.6-0.5c0.6-0.1,1.6-0.4,2.3-0.7c0.6-0.2,1.8-0.8,2.7-1.2c0.8-0.4,2.1-1.2,2.7-1.6
		c0.6-0.5,1.6-1.3,2.2-1.9c0.6-0.6,1.5-1.8,2.1-2.6c0.6-0.8,1.2-2,1.5-2.5c0.3-0.5,0.6-1.4,0.8-2c0.2-0.6,0.5-1.5,0.6-2
		c0.2-0.7,0.3-1,0.6-1.1c0.2-0.1,1.6-0.1,3.5-0.1c1.8,0,3.2,0,3.1,0c-0.1,0-0.3-0.2-0.3-0.3c-0.1-0.2-0.1-0.6-0.1-0.9
		c0-0.3-0.1-1-0.2-1.5s-0.4-1.4-0.6-1.9c-0.2-0.5-0.6-1.3-1-1.8c-0.3-0.5-1-1.3-1.6-1.8c-0.6-0.5-1.3-1.1-1.7-1.2
		c-0.4-0.2-0.8-0.4-1-0.6c-0.2-0.2-0.4-0.3-0.5-0.2c-0.1,0.1-0.3,0-0.6-0.2c-0.2-0.2-0.5-0.7-0.7-1.2c-0.2-0.5-0.5-1.1-0.6-1.3
		c-0.2-0.3-0.5-0.4-0.8-0.4c-0.3,0-0.6,0.1-0.8,0.3c-0.3,0.3-0.3,0.4-0.2,1.5c0.1,0.8,0,1.2-0.1,1.3c-0.1,0.1-0.1,0.2,0,0.2
		c0.1,0,0.2,0.2,0.3,0.4c0.1,0.3,0.1,0.8,0,1.7c-0.1,0.7-0.2,1.4-0.2,1.5c-0.1,0.2-0.3,0.2-3.5,0.2c-1.9,0-4.7-0.1-6.3-0.1
		c-1.6-0.1-4.5-0.2-6.4-0.4c-1.9-0.1-4.5-0.3-5.7-0.3c-1.2-0.1-2.7-0.2-3.4-0.2c-0.7-0.1-1.9-0.1-2.7-0.2c-1-0.1-1.5-0.1-1.6,0
		c-0.1,0.1-0.1,0.6,0.1,1.6c0.1,0.8,0.4,1.9,0.7,2.5c0.2,0.6,0.6,1.4,0.8,1.8c0.3,0.6,0.5,0.7,0.6,0.6c0.1-0.1,0.3-0.2,0.7-0.2
		c0.3,0,2,0.1,3.7,0.2c1.8,0.1,5.5,0.3,8.3,0.4c2.8,0.1,6.2,0.3,7.6,0.4c1.3,0.1,2.8,0.2,3.3,0.2c0.6,0.1,0.9,0.2,0.9,0.3
		c0,0.1-0.5,0.7-1.1,1.2c-0.6,0.6-1.5,1.3-2.1,1.7c-0.6,0.4-1.1,0.7-1.2,0.8c-0.1,0.1-0.4,0.4-0.7,0.6c-0.3,0.3-0.9,0.7-1.4,0.9
		c-0.5,0.2-1.2,0.5-1.7,0.7c-0.5,0.2-1.4,0.4-2.1,0.6c-0.8,0.2-1.9,0.2-3.3,0.2c-1.4,0-2.4-0.1-3.2-0.2c-0.6-0.1-1.5-0.4-2-0.5
		c-0.5-0.2-1.4-0.6-2.1-0.9s-1.5-0.8-1.9-1.1c-0.4-0.3-1.2-0.9-1.7-1.4c-0.5-0.5-1.2-1.2-1.4-1.6c-0.3-0.3-0.8-1.2-1.2-1.8
		c-0.4-0.7-0.9-1.7-1.2-2.3c-0.3-0.6-0.6-1.7-0.8-2.4c-0.3-1.3-0.4-1.6-0.4-5.2c0-3.3-0.1-4-0.3-4.6c-0.1-0.4-0.4-1-0.7-1.3
		c-0.3-0.3-0.7-0.7-1-0.8c-0.3-0.1-0.7-0.3-1-0.3c-0.2,0-0.4-0.1-0.4-0.2c0-0.1-0.2-0.1-0.3-0.1c-0.1,0-0.7,0.5-1.2,1
		c-0.6,0.6-1.1,1.2-1.4,1.9c-0.4,0.8-0.6,1-0.9,1.1c-0.2,0.1-0.4,0.1-0.4,0.1c0,0,0.7,0.1,1.5,0.2c1,0.1,1.6,0.2,1.7,0.4
		c0.1,0.1,0.4,0.5,0.6,0.8c0.2,0.3,0.5,1,0.6,1.5c0.2,0.6,0.3,1.3,0.3,2c0,0.8-0.1,1.1-0.2,1.2c-0.1,0-0.8,0-1.5-0.1
		c-0.7-0.1-2.1-0.2-3-0.3c-1-0.1-2.5-0.3-3.5-0.4c-0.9-0.1-2.7-0.3-4-0.5c-1.2-0.2-3.4-0.4-4.9-0.6c-1.4-0.2-3.7-0.5-5-0.7
		c-1.3-0.2-3.4-0.5-4.6-0.7c-1.2-0.2-3.1-0.5-4.2-0.7c-1.1-0.2-2.9-0.5-4-0.7c-1.1-0.2-3-0.6-4.2-0.8c-1.2-0.2-3.8-0.7-5.7-1.1
		c-1.9-0.4-4.1-0.9-5-1c-0.9-0.2-2.2-0.5-2.9-0.7c-0.7-0.2-1.6-0.4-2.1-0.5c-0.4-0.1-1-0.2-1.2-0.3c-0.2-0.1-0.4-0.2-0.4-0.3
		c0-0.1,0.2-0.3,0.5-0.3c0.3-0.1,1.2-0.3,2.1-0.6c0.9-0.3,2.8-0.9,4.3-1.3c2.2-0.7,2.8-0.8,3.4-0.8c0.5,0,0.7,0,0.5-0.1
		c-0.2-0.1-0.2-0.2,0.1-0.3c0.2-0.1,2.4-0.8,4.9-1.7c2.5-0.8,5.6-1.9,6.9-2.3c1.2-0.4,3.3-1.2,4.5-1.6c1.2-0.5,3.3-1.2,4.7-1.7
		c1.3-0.5,3-1.1,3.7-1.3s2.3-0.9,3.5-1.3c1.2-0.5,2.9-1.2,3.8-1.5c0.9-0.4,3.2-1.4,5.1-2.2c1.9-0.8,5.5-2.6,8-3.8
		c2.5-1.3,6.5-3.3,8.8-4.6c2.3-1.3,5.2-2.9,6.4-3.6c1.2-0.7,3.1-1.8,4.1-2.4c1-0.6,2.6-1.5,3.3-2c0.8-0.5,2.3-1.4,3.3-2.1
		c1-0.6,2.6-1.6,3.5-2.2c0.8-0.6,2.9-1.9,4.6-3.1c1.7-1.1,4.2-2.9,5.7-4c1.5-1.1,3.5-2.5,4.4-3.2c0.9-0.7,2.4-1.8,3.1-2.4
		c0.8-0.6,2.2-1.7,3.1-2.5c0.9-0.7,2.3-1.9,3.1-2.5c0.8-0.7,2-1.7,2.6-2.3c0.7-0.6,2.2-1.9,3.3-3c1.2-1,3.3-3.1,4.8-4.6
		c1.5-1.5,2.7-2.6,2.6-2.6S233.1,84.6,232.2,85.4L232.2,85.4z"/>
	<path class="st1" d="M117.6,149.7c-1.4,0.5-3.3,1-4.2,1.3c-0.9,0.3-1.8,0.5-2.1,0.6c-0.3,0-0.5,0.2-0.5,0.3c0,0.1,0.2,0.2,0.4,0.3
		c0.2,0,0.7,0.2,1.2,0.3c0.4,0.1,1.4,0.3,2.1,0.5c0.7,0.2,2,0.5,2.9,0.7c0.9,0.2,3.1,0.7,5,1s4.4,0.9,5.7,1.1
		c1.2,0.2,3.2,0.6,4.2,0.8c1.1,0.2,2.9,0.5,4,0.7s3,0.5,4.2,0.7s3.3,0.5,4.6,0.7c1.3,0.2,3.6,0.5,5,0.7c1.4,0.2,3.6,0.5,4.9,0.6
		c1.2,0.1,3,0.4,4,0.5c0.9,0.1,2.5,0.3,3.5,0.4c1,0.1,2.3,0.2,3,0.3c0.7,0.1,1.4,0.2,1.5,0.1c0.1,0,0.2-0.4,0.2-1.2
		c0-0.7-0.1-1.4-0.3-2c-0.2-0.5-0.4-1.2-0.6-1.5c-0.2-0.3-0.4-0.7-0.6-0.8c-0.2-0.1-0.8-0.3-1.6-0.4c-0.7-0.1-1.9-0.2-2.6-0.3
		c-0.7-0.1-2.1-0.2-3.2-0.3c-1-0.1-2.7-0.3-3.6-0.4c-0.9-0.1-2.2-0.3-2.8-0.3c-0.6-0.1-1.5-0.2-1.9-0.3c-0.4-0.1-1.1-0.2-1.6-0.2
		c-0.4,0-1.4-0.2-2.2-0.3c-0.8-0.1-1.8-0.3-2.3-0.4c-0.5-0.1-1.4-0.2-2-0.3c-0.6-0.1-1.3-0.2-1.6-0.3c-0.3-0.1-1.1-0.2-1.7-0.3
		c-0.6-0.1-1.8-0.3-2.6-0.4c-0.8-0.1-1.8-0.3-2.1-0.3s-0.9-0.1-1.2-0.2c-0.3-0.1-1.6-0.3-2.8-0.6c-1.2-0.2-2.9-0.6-3.7-0.7
		c-0.8-0.1-1.7-0.3-2.1-0.4c-0.4-0.1-0.9-0.2-1.1-0.2c-0.2,0-0.6-0.1-0.8-0.2c-0.2-0.1-0.7-0.1-1.1-0.1
		C120.4,148.9,119.3,149.2,117.6,149.7L117.6,149.7z M30.8,150.7c-0.3,0-0.9,0.2-1.2,0.4c-0.3,0.2-0.7,0.4-0.9,0.6
		c-0.2,0.1-0.5,0.5-0.7,0.9c-0.2,0.3-0.5,1-0.7,1.4c-0.2,0.5-0.3,1.2-0.3,1.9v1.1c-1,0.2-2,0.3-2.8,0.4c-0.8,0.1-2.5,0.2-3.7,0.3
		c-1.2,0.1-3.3,0.2-4.6,0.3c-1.3,0.1-4.1,0.2-6.2,0.3c-2.1,0.1-4.2,0.2-4.6,0.2c-0.4,0-2.2,0.1-4.1,0.1s-3.5,0.1-3.5,0.2
		c-0.1,0.1-0.1,0.8-0.1,1.7c0,1.2,0.1,1.6,0.3,1.8c0.2,0.2,0.7,0.2,3.3,0.2c1.7,0,4.6-0.1,6.4-0.1c1.8-0.1,5.9-0.3,9-0.5
		c3.2-0.2,6.9-0.4,8.2-0.6c1.3-0.1,2.5-0.1,2.6-0.1c0.2,0.1,0.2,0.2,0.1,0.8c-0.1,0.4-0.2,1.2-0.4,1.9c-0.1,0.7-0.5,1.7-0.8,2.4
		c-0.3,0.6-0.6,1.2-0.7,1.2c-0.1,0-0.1,0.1-0.1,0.2s-0.3,0.6-0.7,1.1c-0.4,0.5-1.1,1.3-1.7,1.8c-0.5,0.5-1.3,1.2-1.7,1.4
		s-1.1,0.7-1.6,1c-0.5,0.3-1.4,0.7-2.1,0.9c-0.6,0.2-1.4,0.4-1.7,0.5c-0.3,0.1-0.8,0.2-1.1,0.3c-0.3,0.1-1.3,0.1-2.2,0.1
		c-1,0-2-0.1-2.5-0.2c-0.5-0.1-1.5-0.4-2.2-0.6c-0.7-0.2-1.7-0.6-2.3-0.9c-0.6-0.3-1.1-0.5-1.1-0.5c0,0,0.3,0.2,0.7,0.5
		c0.4,0.2,0.7,0.4,0.6,0.5c0,0.1,0.2,0.3,0.5,0.4c0.3,0.2,1.2,0.6,1.9,0.8c0.7,0.3,1.8,0.6,2.5,0.7s1.7,0.3,2.4,0.3
		c0.7,0.1,1.8,0,2.6-0.1c0.8-0.1,1.9-0.3,2.5-0.4c0.6-0.2,1.7-0.5,2.3-0.8c0.7-0.3,1.7-0.9,2.4-1.3c0.7-0.4,1.7-1.3,2.3-1.9
		c0.6-0.6,1.4-1.5,1.7-2.1c0.4-0.6,0.9-1.6,1.3-2.3c0.3-0.7,0.8-1.7,0.9-2.2c0.2-0.5,0.4-1.4,0.5-2c0.2-0.8,0.2-2,0.2-4.7
		c0-2,0.1-3.8,0.1-4.1c0.1-0.3,0.3-0.8,0.4-1.1c0.2-0.3,0.5-0.7,0.7-1c0.2-0.2,0.7-0.5,1.1-0.6c0.4-0.1,0.8-0.2,0.9-0.2
		c0.1,0,0.2-0.1,0.2-0.2c0-0.1-0.2-0.2-0.5-0.3c-0.2-0.1-0.7-0.1-1-0.2C31.7,150.6,31.2,150.7,30.8,150.7L30.8,150.7z M167.8,150.7
		c-0.1,0-0.5,0.1-0.7,0.2c-0.3,0.1-0.4,0.2-0.4,0.3c0,0.1,0.2,0.2,0.5,0.2c0.2,0,0.6,0.1,1,0.3c0.3,0.1,0.8,0.5,1,0.8
		c0.3,0.3,0.6,0.9,0.7,1.3c0.2,0.6,0.2,1.4,0.3,4.6c0,3.7,0.1,4,0.4,5.2c0.2,0.7,0.6,1.8,0.8,2.4c0.3,0.6,0.8,1.6,1.2,2.3
		c0.4,0.7,0.9,1.5,1.2,1.8c0.3,0.3,0.9,1,1.4,1.6c0.5,0.5,1.3,1.2,1.7,1.4c0.4,0.3,1.3,0.8,1.9,1.1c0.6,0.3,1.5,0.7,2.1,0.9
		c0.5,0.2,1.4,0.4,2,0.5c0.8,0.2,1.8,0.2,3.2,0.2c1.4,0,2.4-0.1,3.3-0.2c0.7-0.1,1.6-0.4,2.1-0.6c0.5-0.2,1.3-0.5,1.9-0.8
		c0.6-0.3,1.1-0.6,1.2-0.8c0.1-0.1,0.3-0.4,0.5-0.5c0.2-0.1,0.3-0.2,0.2-0.2c-0.1,0-0.3,0.1-0.4,0.2c-0.1,0.1-0.9,0.4-1.6,0.7
		c-0.7,0.3-1.9,0.6-2.7,0.8c-0.9,0.2-1.9,0.3-2.9,0.3c-1.3,0-1.9-0.1-3.2-0.4c-0.9-0.2-2-0.6-2.6-0.8c-0.5-0.2-1.3-0.6-1.8-0.9
		c-0.5-0.3-1.5-1-2.1-1.6c-0.7-0.6-1.5-1.5-1.9-2c-0.4-0.5-1-1.3-1.3-1.8s-0.7-1.4-1-2c-0.2-0.6-0.5-1.7-0.7-2.5
		c-0.2-1-0.2-1.5-0.1-1.6s0.7-0.1,1.6,0c0.8,0.1,2,0.2,2.7,0.2c0.7,0,2.2,0.1,3.4,0.2c1.2,0.1,3.8,0.2,5.7,0.3s4.8,0.3,6.4,0.4
		c1.6,0.1,4.4,0.1,6.3,0.1c3.1,0,3.4,0,3.5-0.2c0-0.1,0.1-0.8,0.2-1.5c0.1-0.8,0.1-1.4,0-1.7c-0.1-0.2-0.2-0.4-0.2-0.4
		c-0.1,0-1.8,0-3.8-0.1c-2,0-3.9-0.1-4.1-0.1c-0.2,0-2.1-0.1-4.2-0.2c-2.1-0.1-4.9-0.2-6.2-0.3c-1.3-0.1-3.2-0.2-4.2-0.3
		c-1-0.1-2.4-0.2-3.1-0.2s-1.7-0.1-2.4-0.2c-0.7-0.1-1.2-0.2-1.3-0.1c-0.1,0-0.1-0.4-0.1-0.9c0-0.5-0.1-1.2-0.2-1.7
		c-0.1-0.4-0.3-1.1-0.6-1.5c-0.2-0.4-0.6-1-0.8-1.2c-0.2-0.2-0.7-0.6-1.1-0.8c-0.4-0.2-1-0.3-1.5-0.4
		C168.5,150.6,168,150.6,167.8,150.7L167.8,150.7z"/>
	<path class="st0" d="M-16.2,158.1c-0.1,0.1-0.3,0.5-0.5,1c-0.1,0.4-0.4,1-0.6,1.2c-0.3,0.3-0.5,0.7-0.6,1.2
		c-0.1,0.4-0.2,1.7-0.3,2.8l-0.1,2c0.7,0.9,0.9,1.3,0.9,1.4c0,0.2,0.1,0.5,0.1,0.8c0.1,0.3,0.2,0.6,0.4,0.7c0.1,0.1,0.5,0.2,0.9,0.2
		c0.6,0,0.8-0.1,1.1-0.3c0.4-0.3,0.4-0.4,0.2-0.6c-0.2-0.2-0.2-0.7-0.2-2.4c0-1.2,0.1-2.8,0.1-3.5c0.1-0.7,0.2-1.8,0.4-2.4
		c0.1-0.6,0.3-1.2,0.3-1.4c0.1-0.2,0-0.3-0.3-0.5c-0.2-0.1-0.7-0.2-1.1-0.2C-15.6,157.9-16,158-16.2,158.1L-16.2,158.1z
		 M214.2,158.3c-0.3,0.2-0.4,0.3-0.3,0.4c0.1,0.1,0.3,0.6,0.4,1.3c0.1,0.6,0.3,2.2,0.4,3.4c0.1,1.2,0.1,2.9,0.1,3.7
		c-0.1,0.9-0.2,1.4-0.3,1.6c-0.2,0.1-0.1,0.2,0.3,0.5c0.3,0.2,0.6,0.3,1.1,0.3c0.4,0,0.8-0.1,0.9-0.1c0.1-0.1,0.2-0.2,0.3-0.4
		c0.1-0.1,0.2-0.6,0.2-0.9c0.1-0.4,0.3-0.9,0.5-1.2c0.4-0.5,0.4-0.6,0.4-1.9c0-0.7-0.1-2-0.2-2.8c-0.2-1.2-0.3-1.5-0.6-1.8
		c-0.2-0.2-0.5-0.7-0.6-1.1c-0.1-0.4-0.3-0.8-0.5-1c-0.2-0.2-0.5-0.3-1-0.2C214.8,157.9,214.5,158.1,214.2,158.3L214.2,158.3z"/>
	<path class="st1" d="M-14,158.8c0,0.1-0.1,0.7-0.3,1.4c-0.1,0.6-0.3,1.7-0.4,2.4c-0.1,0.7-0.1,2.3-0.1,3.5c0,1.5,0.1,2.3,0.2,2.4
		c0.1,0.1,0.4,0.3,0.7,0.3c0.3,0,0.7,0,0.8,0c0.1-0.1,0.2-0.2,0.3-0.3c0-0.1,0.1-0.7,0.2-1.3c0.1-0.6,0.3-1.5,0.5-2.1
		c0.2-0.6,0.6-1.5,0.9-2c0.3-0.6,1-1.4,1.7-2.2c0.8-0.8,1.5-1.4,2.1-1.6c0.4-0.2,0.8-0.5,0.9-0.6c0-0.1-0.8-0.2-3.7-0.1
		C-13.5,158.5-13.9,158.6-14,158.8z M206.7,158.8c0.1,0.1,0.5,0.3,0.9,0.5c0.4,0.2,1.2,0.8,1.8,1.3c0.6,0.5,1.3,1.3,1.6,1.8
		c0.3,0.4,0.7,1.2,0.9,1.6c0.2,0.5,0.5,1.2,0.6,1.6c0.1,0.4,0.3,1.3,0.3,1.9c0.1,0.6,0.2,1.2,0.2,1.2c0,0,0.4,0,0.8,0
		c0.4,0,0.8-0.1,0.8-0.2c0.1-0.1,0.1-0.8,0.2-1.5c0.1-0.8,0-2.3-0.1-3.6c-0.1-1.2-0.3-2.8-0.4-3.4c-0.1-0.7-0.3-1.2-0.5-1.3
		c-0.1-0.1-1.7-0.1-3.8-0.1C207.1,158.6,206.5,158.6,206.7,158.8L206.7,158.8z M35.1,167c-0.3,0-0.6,0.1-0.7,0.2
		c-0.1,0.1-0.3,0.7-0.5,1.4c-0.2,0.7-0.8,1.9-1.2,2.8c-0.4,0.8-1.2,2.2-1.7,2.9c-0.5,0.7-1.4,1.9-2,2.6c-0.6,0.7-1.7,1.8-2.5,2.4
		c-0.7,0.6-1.9,1.5-2.5,1.9c-0.6,0.4-1.8,1.1-2.6,1.5c-0.8,0.4-1.4,0.8-1.3,0.8c0.1,0,0.5-0.1,1-0.2c0.5-0.1,1.5-0.6,2.4-1
		c0.9-0.4,2.1-1.1,2.8-1.5c0.7-0.4,1.8-1.2,2.4-1.7c0.6-0.5,1.7-1.5,2.3-2.1c0.6-0.7,1.6-1.8,2.1-2.5c0.5-0.7,1.2-1.9,1.7-2.8
		c0.4-0.8,1-2.1,1.3-2.8c0.3-0.7,0.5-1.5,0.5-1.7c0-0.3-0.1-0.3-0.4-0.3C35.9,166.9,35.4,166.9,35.1,167z M163.6,167
		c-0.1,0.1,0.1,0.8,0.4,1.5c0.3,0.8,0.8,2,1.2,2.7c0.4,0.7,1,1.9,1.5,2.6c0.5,0.7,1.3,1.8,1.8,2.4c0.5,0.6,1.4,1.5,2.1,2.1
		c0.7,0.6,1.8,1.5,2.5,1.9c0.7,0.5,2,1.2,2.9,1.7s1.9,0.9,2.3,1.1c0.4,0.1,1,0.3,1.3,0.4l0.5,0.1c-0.6-0.4-1.2-0.8-1.9-1.1
		c-0.7-0.3-1.6-0.9-2.1-1.2c-0.5-0.3-1.5-1-2.1-1.5c-0.7-0.5-1.6-1.4-2.1-1.9c-0.5-0.5-1.3-1.4-1.7-2c-0.4-0.6-1-1.4-1.3-1.9
		c-0.3-0.5-0.9-1.6-1.3-2.5c-0.4-0.9-1-2.2-1.2-2.8c-0.2-0.7-0.5-1.3-0.6-1.4c-0.1-0.1-0.6-0.2-1.1-0.3
		C164,166.9,163.6,166.9,163.6,167L163.6,167z"/>
</g>
</svg>
